<mxfile host="65bd71144e">
    <diagram id="EPBq-py7zw7CzxiNBtHQ" name="Page-1">
        <mxGraphModel dx="820" dy="563" grid="1" gridSize="10" guides="1" tooltips="1" connect="1" arrows="1" fold="1" page="1" pageScale="1" pageWidth="827" pageHeight="1169" math="0" shadow="0">
            <root>
                <mxCell id="0"/>
                <mxCell id="1" parent="0"/>
                <mxCell id="2" value="" style="rounded=0;whiteSpace=wrap;html=1;" parent="1" vertex="1">
                    <mxGeometry x="110" y="50" width="980" height="440" as="geometry"/>
                </mxCell>
                <mxCell id="79" value="minikube" style="rounded=0;whiteSpace=wrap;html=1;verticalAlign=top;fontStyle=1;fillColor=#f9f7ed;strokeColor=#36393d;fontColor=#000000;align=left;" parent="1" vertex="1">
                    <mxGeometry x="220" y="60" width="860" height="420" as="geometry"/>
                </mxCell>
                <mxCell id="80" value="DEBUGç”¨" style="rounded=0;whiteSpace=wrap;html=1;verticalAlign=top;fontStyle=1;fillColor=#eeeeee;strokeColor=#F0F0F0;fontColor=#030303;" parent="1" vertex="1">
                    <mxGeometry x="230" y="80" width="140" height="160" as="geometry"/>
                </mxCell>
                <mxCell id="3" value="Local Storage" style="rounded=0;whiteSpace=wrap;html=1;verticalAlign=top;fontStyle=1;fillColor=#eeeeee;strokeColor=none;fontColor=#030303;" parent="1" vertex="1">
                    <mxGeometry x="920" y="80" width="140" height="340" as="geometry"/>
                </mxCell>
                <mxCell id="4" value="DB (MongoDB)" style="rounded=0;whiteSpace=wrap;html=1;verticalAlign=top;fontStyle=1;fillColor=#eeeeee;strokeColor=#F0F0F0;fontColor=#030303;" parent="1" vertex="1">
                    <mxGeometry x="740" y="80" width="140" height="340" as="geometry"/>
                </mxCell>
                <mxCell id="5" value="AP (Node.js)" style="rounded=0;whiteSpace=wrap;html=1;verticalAlign=top;fontStyle=1;fillColor=#eeeeee;strokeColor=#F0F0F0;fontColor=#030303;" parent="1" vertex="1">
                    <mxGeometry x="560" y="80" width="140" height="340" as="geometry"/>
                </mxCell>
                <mxCell id="6" value="Web (nginx)" style="rounded=0;whiteSpace=wrap;html=1;verticalAlign=top;fontStyle=1;fillColor=#eeeeee;strokeColor=#F0F0F0;fontColor=#030303;" parent="1" vertex="1">
                    <mxGeometry x="380" y="80" width="140" height="340" as="geometry"/>
                </mxCell>
                <mxCell id="7" style="edgeStyle=none;html=1;exitX=1;exitY=0.5;exitDx=0;exitDy=0;entryX=0;entryY=0.5;entryDx=0;entryDy=0;fillColor=#d5e8d4;strokeColor=#82b366;" parent="1" source="8" target="10" edge="1">
                    <mxGeometry relative="1" as="geometry"/>
                </mxCell>
                <mxCell id="8" value="User" style="rounded=1;whiteSpace=wrap;html=1;fillColor=#f5f5f5;fontColor=#333333;strokeColor=#666666;" parent="1" vertex="1">
                    <mxGeometry x="120" y="340" width="80" height="40" as="geometry"/>
                </mxCell>
                <mxCell id="9" style="edgeStyle=none;html=1;exitX=1;exitY=0.5;exitDx=0;exitDy=0;entryX=0;entryY=0.5;entryDx=0;entryDy=0;fillColor=#d5e8d4;strokeColor=#82b366;" parent="1" source="10" target="11" edge="1">
                    <mxGeometry relative="1" as="geometry"/>
                </mxCell>
                <mxCell id="10" value="Ingress" style="rounded=1;whiteSpace=wrap;html=1;fillColor=#1ba1e2;fontColor=#ffffff;strokeColor=#000000;fontStyle=1" parent="1" vertex="1">
                    <mxGeometry x="260" y="340" width="80" height="40" as="geometry"/>
                </mxCell>
                <mxCell id="72" style="edgeStyle=none;html=1;exitX=0.5;exitY=1;exitDx=0;exitDy=0;entryX=0.5;entryY=0;entryDx=0;entryDy=0;fillColor=#d5e8d4;strokeColor=#82b366;" parent="1" source="11" target="13" edge="1">
                    <mxGeometry relative="1" as="geometry"/>
                </mxCell>
                <mxCell id="11" value="Service" style="rounded=1;whiteSpace=wrap;html=1;fillColor=#1ba1e2;fontColor=#ffffff;strokeColor=#000000;fontStyle=1" parent="1" vertex="1">
                    <mxGeometry x="410" y="180" width="80" height="40" as="geometry"/>
                </mxCell>
                <mxCell id="73" style="edgeStyle=none;html=1;exitX=1;exitY=0.5;exitDx=0;exitDy=0;entryX=0;entryY=0.5;entryDx=0;entryDy=0;fillColor=#d5e8d4;strokeColor=#82b366;" parent="1" source="13" target="14" edge="1">
                    <mxGeometry relative="1" as="geometry"/>
                </mxCell>
                <mxCell id="13" value="Deployment" style="rounded=1;whiteSpace=wrap;html=1;verticalAlign=bottom;fillColor=#dae8fc;strokeColor=#6c8ebf;fontColor=#000000;fontStyle=1" parent="1" vertex="1">
                    <mxGeometry x="390" y="260" width="120" height="100" as="geometry"/>
                </mxCell>
                <mxCell id="74" style="edgeStyle=none;html=1;exitX=0.5;exitY=1;exitDx=0;exitDy=0;entryX=0.5;entryY=0;entryDx=0;entryDy=0;fillColor=#d5e8d4;strokeColor=#82b366;" parent="1" source="14" target="18" edge="1">
                    <mxGeometry relative="1" as="geometry"/>
                </mxCell>
                <mxCell id="14" value="Service" style="rounded=1;whiteSpace=wrap;html=1;fillColor=#1ba1e2;fontColor=#ffffff;strokeColor=#000000;fontStyle=1" parent="1" vertex="1">
                    <mxGeometry x="592" y="180" width="80" height="40" as="geometry"/>
                </mxCell>
                <mxCell id="16" value="Pod" style="rounded=1;whiteSpace=wrap;html=1;fillColor=#1ba1e2;fontColor=#ffffff;strokeColor=#000000;" parent="1" vertex="1">
                    <mxGeometry x="402" y="270" width="76" height="40" as="geometry"/>
                </mxCell>
                <mxCell id="75" style="edgeStyle=none;html=1;exitX=1;exitY=0.5;exitDx=0;exitDy=0;entryX=0;entryY=0.5;entryDx=0;entryDy=0;fillColor=#d5e8d4;strokeColor=#82b366;" parent="1" source="18" target="38" edge="1">
                    <mxGeometry relative="1" as="geometry"/>
                </mxCell>
                <mxCell id="18" value="Deployment" style="rounded=1;whiteSpace=wrap;html=1;verticalAlign=bottom;fillColor=#dae8fc;strokeColor=#6c8ebf;fontColor=#000000;fontStyle=1" parent="1" vertex="1">
                    <mxGeometry x="572" y="260" width="120" height="100" as="geometry"/>
                </mxCell>
                <mxCell id="20" value="StatefulSet" style="rounded=1;whiteSpace=wrap;html=1;verticalAlign=bottom;fillColor=#dae8fc;strokeColor=#6c8ebf;fontColor=#000000;fontStyle=1" parent="1" vertex="1">
                    <mxGeometry x="750" y="260" width="120" height="140" as="geometry"/>
                </mxCell>
                <mxCell id="21" value="Pod" style="rounded=1;whiteSpace=wrap;html=1;verticalAlign=middle;fillColor=#1ba1e2;fontColor=#ffffff;strokeColor=#000000;fontStyle=1" parent="1" vertex="1">
                    <mxGeometry x="760" y="270" width="80" height="80" as="geometry"/>
                </mxCell>
                <mxCell id="23" value="Pod" style="rounded=1;whiteSpace=wrap;html=1;fillColor=#1ba1e2;fontColor=#ffffff;strokeColor=#000000;" parent="1" vertex="1">
                    <mxGeometry x="412" y="280" width="76" height="40" as="geometry"/>
                </mxCell>
                <mxCell id="25" value="Pod" style="rounded=1;whiteSpace=wrap;html=1;fillColor=#1ba1e2;fontColor=#ffffff;strokeColor=#000000;" parent="1" vertex="1">
                    <mxGeometry x="422" y="290" width="76" height="40" as="geometry"/>
                </mxCell>
                <mxCell id="27" value="Pod" style="rounded=1;whiteSpace=wrap;html=1;fillColor=#1ba1e2;fontColor=#ffffff;strokeColor=#000000;" parent="1" vertex="1">
                    <mxGeometry x="582" y="270" width="76" height="40" as="geometry"/>
                </mxCell>
                <mxCell id="29" value="Pod" style="rounded=1;whiteSpace=wrap;html=1;fillColor=#1ba1e2;fontColor=#ffffff;strokeColor=#000000;" parent="1" vertex="1">
                    <mxGeometry x="592" y="280" width="76" height="40" as="geometry"/>
                </mxCell>
                <mxCell id="31" value="Pod" style="rounded=1;whiteSpace=wrap;html=1;fillColor=#1ba1e2;fontColor=#ffffff;strokeColor=#000000;" parent="1" vertex="1">
                    <mxGeometry x="602" y="290" width="76" height="40" as="geometry"/>
                </mxCell>
                <mxCell id="32" value="Pod" style="rounded=1;whiteSpace=wrap;html=1;verticalAlign=middle;fillColor=#1ba1e2;fontColor=#ffffff;strokeColor=#000000;fontStyle=1" parent="1" vertex="1">
                    <mxGeometry x="770" y="280" width="80" height="80" as="geometry"/>
                </mxCell>
                <mxCell id="33" value="Pod" style="rounded=1;whiteSpace=wrap;html=1;verticalAlign=top;fillColor=#1ba1e2;fontColor=#ffffff;strokeColor=#000000;fontStyle=1" parent="1" vertex="1">
                    <mxGeometry x="780" y="290" width="80" height="80" as="geometry"/>
                </mxCell>
                <mxCell id="34" value="Persistent&lt;br&gt;Volume&lt;br&gt;Claim" style="rounded=1;whiteSpace=wrap;html=1;fillColor=#0050ef;fontColor=#ffffff;strokeColor=#001DBC;fontStyle=1" parent="1" vertex="1">
                    <mxGeometry x="790" y="315" width="60" height="50" as="geometry"/>
                </mxCell>
                <mxCell id="76" style="edgeStyle=none;html=1;exitX=0.5;exitY=1;exitDx=0;exitDy=0;entryX=0.5;entryY=0;entryDx=0;entryDy=0;fillColor=#d5e8d4;strokeColor=#82b366;" parent="1" source="38" target="20" edge="1">
                    <mxGeometry relative="1" as="geometry"/>
                </mxCell>
                <mxCell id="38" value="Headless&lt;br&gt;Service" style="rounded=1;whiteSpace=wrap;html=1;fillColor=#1ba1e2;fontColor=#ffffff;strokeColor=#000000;fontStyle=1" parent="1" vertex="1">
                    <mxGeometry x="770" y="180" width="80" height="40" as="geometry"/>
                </mxCell>
                <mxCell id="39" value="Pod" style="rounded=1;whiteSpace=wrap;html=1;fillColor=#1ba1e2;fontColor=#ffffff;strokeColor=#000000;fontStyle=1" parent="1" vertex="1">
                    <mxGeometry x="942" y="300" width="76" height="40" as="geometry"/>
                </mxCell>
                <mxCell id="40" style="edgeStyle=none;html=1;entryX=0;entryY=0.5;entryDx=0;entryDy=0;exitX=1;exitY=0.5;exitDx=0;exitDy=0;fillColor=#d5e8d4;strokeColor=#82b366;" parent="1" source="33" target="41" edge="1">
                    <mxGeometry relative="1" as="geometry">
                        <mxPoint x="890" y="290" as="targetPoint"/>
                        <mxPoint x="900" y="240" as="sourcePoint"/>
                    </mxGeometry>
                </mxCell>
                <mxCell id="41" value="Pod" style="rounded=1;whiteSpace=wrap;html=1;fillColor=#1ba1e2;fontColor=#ffffff;strokeColor=#000000;fontStyle=1" parent="1" vertex="1">
                    <mxGeometry x="952" y="310" width="76" height="40" as="geometry"/>
                </mxCell>
                <mxCell id="42" value="Persistent&lt;br&gt;Volume" style="rounded=1;whiteSpace=wrap;html=1;fillColor=#1ba1e2;fontColor=#ffffff;strokeColor=#000000;fontStyle=1" parent="1" vertex="1">
                    <mxGeometry x="962" y="320" width="76" height="40" as="geometry"/>
                </mxCell>
                <mxCell id="59" value="" style="endArrow=none;html=1;strokeColor=#000000;" parent="1" edge="1">
                    <mxGeometry width="50" height="50" relative="1" as="geometry">
                        <mxPoint x="140" y="460" as="sourcePoint"/>
                        <mxPoint x="1060" y="460" as="targetPoint"/>
                    </mxGeometry>
                </mxCell>
                <mxCell id="60" value="" style="endArrow=none;html=1;exitX=0.5;exitY=1;exitDx=0;exitDy=0;strokeColor=#000000;" parent="1" source="10" edge="1">
                    <mxGeometry width="50" height="50" relative="1" as="geometry">
                        <mxPoint x="150" y="470" as="sourcePoint"/>
                        <mxPoint x="300" y="460" as="targetPoint"/>
                    </mxGeometry>
                </mxCell>
                <mxCell id="61" value="" style="endArrow=none;html=1;strokeColor=#000000;" parent="1" edge="1">
                    <mxGeometry width="50" height="50" relative="1" as="geometry">
                        <mxPoint x="140" y="120" as="sourcePoint"/>
                        <mxPoint x="1060" y="120" as="targetPoint"/>
                    </mxGeometry>
                </mxCell>
                <mxCell id="63" value="Pod" style="rounded=1;whiteSpace=wrap;html=1;fillColor=#1ba1e2;fontColor=#ffffff;strokeColor=#000000;fontStyle=1" parent="1" vertex="1">
                    <mxGeometry x="260" y="180" width="80" height="40" as="geometry"/>
                </mxCell>
                <mxCell id="65" value="" style="endArrow=none;html=1;exitX=0.5;exitY=0;exitDx=0;exitDy=0;strokeColor=#000000;" parent="1" source="63" edge="1">
                    <mxGeometry width="50" height="50" relative="1" as="geometry">
                        <mxPoint x="150" y="270" as="sourcePoint"/>
                        <mxPoint x="300" y="120" as="targetPoint"/>
                    </mxGeometry>
                </mxCell>
                <mxCell id="66" value="" style="endArrow=none;html=1;exitX=0.5;exitY=0;exitDx=0;exitDy=0;strokeColor=#000000;" parent="1" edge="1">
                    <mxGeometry width="50" height="50" relative="1" as="geometry">
                        <mxPoint x="449.6" y="180" as="sourcePoint"/>
                        <mxPoint x="449.6" y="120" as="targetPoint"/>
                    </mxGeometry>
                </mxCell>
                <mxCell id="67" value="" style="endArrow=none;html=1;exitX=0.5;exitY=0;exitDx=0;exitDy=0;strokeColor=#121212;" parent="1" source="25" edge="1">
                    <mxGeometry width="50" height="50" relative="1" as="geometry">
                        <mxPoint x="497.9999999999999" y="180" as="sourcePoint"/>
                        <mxPoint x="497.9999999999999" y="120" as="targetPoint"/>
                        <Array as="points">
                            <mxPoint x="460" y="240"/>
                            <mxPoint x="498" y="240"/>
                        </Array>
                    </mxGeometry>
                </mxCell>
                <mxCell id="68" value="" style="endArrow=none;html=1;exitX=0.5;exitY=0;exitDx=0;exitDy=0;strokeColor=#000000;" parent="1" source="14" edge="1">
                    <mxGeometry width="50" height="50" relative="1" as="geometry">
                        <mxPoint x="631.7199999999999" y="180" as="sourcePoint"/>
                        <mxPoint x="632" y="120" as="targetPoint"/>
                    </mxGeometry>
                </mxCell>
                <mxCell id="69" value="" style="endArrow=none;html=1;exitX=0.5;exitY=0;exitDx=0;exitDy=0;strokeColor=#121212;" parent="1" edge="1">
                    <mxGeometry width="50" height="50" relative="1" as="geometry">
                        <mxPoint x="640.0000000000001" y="290" as="sourcePoint"/>
                        <mxPoint x="677.9999999999999" y="120" as="targetPoint"/>
                        <Array as="points">
                            <mxPoint x="640" y="240"/>
                            <mxPoint x="678" y="240"/>
                        </Array>
                    </mxGeometry>
                </mxCell>
                <mxCell id="70" value="" style="endArrow=none;html=1;exitX=0.5;exitY=0;exitDx=0;exitDy=0;strokeColor=#000000;" parent="1" edge="1">
                    <mxGeometry width="50" height="50" relative="1" as="geometry">
                        <mxPoint x="809.67" y="180" as="sourcePoint"/>
                        <mxPoint x="809.67" y="120" as="targetPoint"/>
                    </mxGeometry>
                </mxCell>
                <mxCell id="71" value="" style="endArrow=none;html=1;exitX=0.5;exitY=0;exitDx=0;exitDy=0;strokeColor=#121212;" parent="1" edge="1">
                    <mxGeometry width="50" height="50" relative="1" as="geometry">
                        <mxPoint x="822" y="290" as="sourcePoint"/>
                        <mxPoint x="860" y="120" as="targetPoint"/>
                        <Array as="points">
                            <mxPoint x="822" y="240"/>
                            <mxPoint x="860" y="240"/>
                        </Array>
                    </mxGeometry>
                </mxCell>
            </root>
        </mxGraphModel>
    </diagram>
</mxfile>